<svg width="30" height="31" viewBox="0 0 30 31" fill="none" xmlns="http://www.w3.org/2000/svg">
<g id="CodeSlash">
<path id="Vector" d="M19.6465 3.9235C19.6827 3.80581 19.6953 3.68213 19.6837 3.55954C19.6721 3.43695 19.6365 3.31785 19.5789 3.20903C19.5212 3.10021 19.4427 3.00381 19.3478 2.92533C19.2529 2.84685 19.1435 2.78783 19.0258 2.75163C18.9081 2.71543 18.7845 2.70277 18.6619 2.71438C18.5393 2.72598 18.4202 2.76161 18.3114 2.81924C18.2025 2.87687 18.1061 2.95537 18.0277 3.05026C17.9492 3.14514 17.8902 3.25456 17.854 3.37225L10.354 27.7473C10.2809 27.985 10.3052 28.242 10.4216 28.4617C10.538 28.6815 10.7369 28.846 10.9746 28.9191C11.2123 28.9922 11.4693 28.9679 11.6891 28.8515C11.9088 28.7351 12.0734 28.5362 12.1465 28.2985L19.6465 3.9235ZM9.10146 8.60913C9.18877 8.69621 9.25803 8.79967 9.3053 8.91357C9.35256 9.02746 9.37689 9.14957 9.37689 9.27288C9.37689 9.39619 9.35256 9.5183 9.3053 9.63219C9.25803 9.74609 9.18877 9.84954 9.10146 9.93663L3.20084 15.8354L9.10146 21.7341C9.2775 21.9102 9.3764 22.1489 9.3764 22.3979C9.3764 22.6468 9.2775 22.8856 9.10146 23.0616C8.92542 23.2377 8.68667 23.3366 8.43771 23.3366C8.18876 23.3366 7.95 23.2377 7.77396 23.0616L1.21146 16.4991C1.12415 16.412 1.05489 16.3086 1.00762 16.1947C0.960363 16.0808 0.936035 15.9587 0.936035 15.8354C0.936035 15.7121 0.960363 15.59 1.00762 15.4761C1.05489 15.3622 1.12415 15.2587 1.21146 15.1716L7.77396 8.60913C7.86105 8.52182 7.9645 8.45256 8.0784 8.40529C8.1923 8.35803 8.3144 8.3337 8.43771 8.3337C8.56102 8.3337 8.68313 8.35803 8.79702 8.40529C8.91092 8.45256 9.01437 8.52182 9.10146 8.60913ZM20.899 8.60913C20.8117 8.69621 20.7424 8.79967 20.6951 8.91357C20.6479 9.02746 20.6235 9.14957 20.6235 9.27288C20.6235 9.39619 20.6479 9.5183 20.6951 9.63219C20.7424 9.74609 20.8117 9.84954 20.899 9.93663L26.7996 15.8354L20.899 21.7341C20.8118 21.8213 20.7427 21.9248 20.6955 22.0387C20.6483 22.1525 20.624 22.2746 20.624 22.3979C20.624 22.5212 20.6483 22.6432 20.6955 22.7571C20.7427 22.871 20.8118 22.9745 20.899 23.0616C20.9861 23.1488 21.0896 23.2179 21.2035 23.2651C21.3174 23.3123 21.4394 23.3366 21.5627 23.3366C21.686 23.3366 21.808 23.3123 21.9219 23.2651C22.0358 23.2179 22.1393 23.1488 22.2265 23.0616L28.789 16.4991C28.8763 16.412 28.9455 16.3086 28.9928 16.1947C29.0401 16.0808 29.0644 15.9587 29.0644 15.8354C29.0644 15.7121 29.0401 15.59 28.9928 15.4761C28.9455 15.3622 28.8763 15.2587 28.789 15.1716L22.2265 8.60913C22.1394 8.52182 22.0359 8.45256 21.922 8.40529C21.8081 8.35803 21.686 8.3337 21.5627 8.3337C21.4394 8.3337 21.3173 8.35803 21.2034 8.40529C21.0895 8.45256 20.986 8.52182 20.899 8.60913Z" fill="#2653B1"/>
</g>
</svg>
