<svg width="693" height="573" viewBox="0 0 693 573" fill="none" xmlns="http://www.w3.org/2000/svg">
<path d="M517.307 45.496C518.839 41.8106 521.085 38.462 523.916 35.6413C526.747 32.8207 530.108 30.5832 533.808 29.0567C537.507 27.5301 541.471 26.7444 545.475 26.7444C549.479 26.7444 553.444 27.5301 557.143 29.0567C560.842 30.5832 564.203 32.8207 567.034 35.6413C569.865 38.462 572.111 41.8106 573.643 45.496C575.176 49.1814 575.964 53.1313 575.964 57.1204C575.964 61.1094 575.176 65.0593 573.643 68.7447C572.111 72.4301 569.865 75.7787 567.034 78.5994L545.475 100.078L523.916 78.5994C521.085 75.7787 518.839 72.4301 517.307 68.7447C515.775 65.0594 514.986 61.1094 514.986 57.1204C514.986 53.1313 515.775 49.1814 517.307 45.496Z" fill="#2653B1"/>
<rect x="498.995" y="76.0649" width="90.8918" height="93.9934" fill="#2653B1"/>
<path fill-rule="evenodd" clip-rule="evenodd" d="M389.397 509.293C384.196 496.805 381.519 483.42 381.519 469.903L485.01 469.903L588.501 469.903C588.501 483.42 585.824 496.805 580.623 509.293C575.422 521.781 567.799 533.129 558.189 542.687C548.579 552.245 537.17 559.827 524.614 564.999C512.058 570.172 498.601 572.835 485.01 572.835C471.419 572.835 457.962 570.172 445.406 564.999C432.849 559.827 421.441 552.245 411.831 542.687C402.221 533.129 394.597 521.781 389.397 509.293Z" fill="#FFAF00"/>
<circle cx="482.213" cy="363.615" r="106.288" fill="#2653B1"/>
<path d="M588.134 257.616L484.912 154.395L382.637 256.669L588.134 257.616Z" fill="#03C9A5"/>
<path d="M-5.62412e-06 444.17L0 572.835L127.546 572.835L-5.62412e-06 444.17Z" fill="#FD4F4F"/>
<path fill-rule="evenodd" clip-rule="evenodd" d="M318.865 572.835H381.519V509.435H318.865H256.211V572.835H318.865ZM381.519 509.435V446.035H318.865H256.211V509.435H318.865H381.519ZM256.211 446.035C256.211 437.709 257.831 429.465 260.98 421.773C264.129 414.081 268.744 407.091 274.562 401.204C280.38 395.317 287.286 390.647 294.888 387.461C302.49 384.275 310.637 382.635 318.865 382.635C327.093 382.635 335.24 384.275 342.841 387.461C350.443 390.647 357.35 395.317 363.168 401.204C368.986 407.091 373.601 414.081 376.75 421.773C379.898 429.465 381.519 437.709 381.519 446.035H318.865H256.211Z" fill="#FD4F4F"/>
<path d="M166.486 449.067C174.359 445.834 182.797 444.17 191.319 444.17C199.841 444.17 208.279 445.834 216.152 449.067C224.025 452.3 231.179 457.039 237.204 463.012C243.23 468.986 248.01 476.078 251.271 483.883C254.532 491.689 256.211 500.054 256.211 508.502C256.211 516.951 254.532 525.316 251.271 533.121C248.01 540.926 243.23 548.018 237.204 553.992C231.179 559.966 224.025 564.705 216.152 567.938C208.279 571.171 199.841 572.835 191.319 572.835L126.427 572.835L126.427 508.502C126.427 500.054 128.106 491.689 131.367 483.883C134.628 476.078 139.408 468.986 145.434 463.012C151.459 457.039 158.613 452.3 166.486 449.067Z" fill="#2653B1"/>
<path d="M236.181 380.207C232.245 381.81 228.025 382.635 223.765 382.635C219.504 382.635 215.285 381.81 211.348 380.207C207.412 378.605 203.835 376.256 200.822 373.295C197.809 370.334 195.419 366.819 193.789 362.951C192.158 359.082 191.319 354.936 191.319 350.748C191.319 346.561 192.158 342.414 193.789 338.546C195.419 334.677 197.809 331.162 200.822 328.201C203.835 325.24 207.412 322.891 211.348 321.289C215.285 319.686 219.504 318.862 223.765 318.862L256.211 318.862L256.211 350.748C256.211 354.936 255.371 359.082 253.741 362.951C252.11 366.819 249.72 370.334 246.707 373.295C243.694 376.256 240.118 378.605 236.181 380.207Z" fill="#2653B1"/>
<path d="M275.812 255.363C279.884 253.705 284.249 252.851 288.657 252.851C293.064 252.851 297.429 253.705 301.501 255.363C305.573 257.022 309.274 259.453 312.39 262.518C315.507 265.583 317.98 269.221 319.666 273.226C321.353 277.23 322.221 281.522 322.221 285.856C322.221 290.191 321.353 294.483 319.666 298.487C317.98 302.491 315.507 306.13 312.39 309.195C309.274 312.26 305.573 314.691 301.501 316.349C297.429 318.008 293.064 318.862 288.657 318.862L255.092 318.862L255.092 285.856C255.092 281.522 255.96 277.23 257.647 273.226C259.334 269.221 261.806 265.583 264.923 262.518C268.039 259.453 271.74 257.022 275.812 255.363Z" fill="#2653B1"/>
<path d="M193.789 298.487C192.158 294.483 191.319 290.191 191.319 285.856C191.319 281.522 192.158 277.23 193.789 273.226C195.419 269.222 197.809 265.583 200.822 262.518C203.835 259.453 207.412 257.022 211.348 255.364C215.285 253.705 219.504 252.851 223.765 252.851C228.026 252.851 232.245 253.705 236.181 255.364C240.118 257.022 243.695 259.453 246.707 262.518C249.72 265.583 252.11 269.222 253.741 273.226C255.371 277.23 256.211 281.522 256.211 285.856V318.862H223.765C219.504 318.862 215.285 318.008 211.348 316.349C207.412 314.691 203.835 312.26 200.822 309.195C197.809 306.13 195.419 302.491 193.789 298.487Z" fill="#2653B1"/>
<rect x="588.501" y="233.831" width="104.051" height="234.953" fill="#FFAF00"/>
<path d="M659.662 229.956C653.418 232.515 646.725 233.831 639.967 233.831C633.208 233.831 626.516 232.515 620.272 229.956C614.027 227.398 608.354 223.648 603.575 218.921C598.796 214.194 595.005 208.582 592.418 202.406C589.832 196.23 588.501 189.61 588.501 182.925C588.501 176.24 589.832 169.62 592.418 163.444C595.005 157.267 598.796 151.656 603.575 146.928C608.354 142.201 614.027 138.452 620.272 135.893C626.516 133.335 633.208 132.018 639.967 132.018L691.433 132.018L691.433 182.925C691.433 189.61 690.101 196.23 687.515 202.406C684.929 208.582 681.138 214.194 676.359 218.921C671.58 223.648 665.906 227.398 659.662 229.956Z" fill="#03C9A5"/>
<circle cx="91.1841" cy="477.175" r="39.7183" fill="#03C9A5"/>
<path d="M590.971 536.65C582.223 509.282 597.317 480.003 624.686 471.254C652.054 462.506 681.333 477.6 690.081 504.969C698.83 532.337 683.736 561.616 656.367 570.364C628.998 579.113 599.72 564.019 590.971 536.65Z" fill="#03C9A5"/>
<path fill-rule="evenodd" clip-rule="evenodd" d="M260.98 343.267C257.831 335.529 256.211 327.237 256.211 318.862L318.865 318.862L381.519 318.862C381.519 327.237 379.898 335.529 376.75 343.267C373.601 351.004 368.986 358.034 363.168 363.956C357.35 369.878 350.443 374.575 342.841 377.78C335.24 380.985 327.093 382.635 318.865 382.635C310.637 382.635 302.49 380.985 294.888 377.78C287.286 374.575 280.38 369.878 274.562 363.956C268.744 358.034 264.129 351.004 260.98 343.267Z" fill="#03C9A5"/>
<path fill-rule="evenodd" clip-rule="evenodd" d="M357.114 199.441C364.851 196.293 373.144 194.672 381.519 194.672L381.519 257.326L381.519 319.98C373.144 319.98 364.851 318.36 357.114 315.211C349.376 312.063 342.346 307.447 336.424 301.629C330.502 295.812 325.805 288.905 322.6 281.303C319.395 273.701 317.746 265.554 317.746 257.326C317.746 249.098 319.395 240.951 322.6 233.35C325.805 225.748 330.502 218.841 336.424 213.023C342.346 207.205 349.377 202.59 357.114 199.441Z" fill="#FD4F4F"/>
<rect x="125.552" y="384" width="132" height="60" fill="#FFAF00"/>
<rect x="692.256" y="23.6841" width="117.586" height="59.9182" transform="rotate(113.283 692.256 23.6841)" fill="#FD4F4F"/>
</svg>
