<svg width="1211" height="121" viewBox="0 0 1211 121" fill="none" xmlns="http://www.w3.org/2000/svg">
<circle cx="60.5" cy="60.5" r="60.5" fill="#FFAF00"/>
<rect x="121" width="121" height="121" fill="#03C9A5"/>
<path fill-rule="evenodd" clip-rule="evenodd" d="M246.605 97.8477C243.565 105.188 242 113.055 242 121L302.5 121L363 121C363 113.055 361.435 105.188 358.395 97.8476C355.354 90.5075 350.898 83.838 345.28 78.22C339.662 72.6021 332.993 68.1457 325.652 65.1053C318.312 62.0649 310.445 60.5 302.5 60.5C294.555 60.5 286.688 62.0649 279.348 65.1053C272.007 68.1457 265.338 72.6021 259.72 78.22C254.102 83.838 249.646 90.5075 246.605 97.8477Z" fill="#2653B1"/>
<path fill-rule="evenodd" clip-rule="evenodd" d="M246.605 37.3477C243.565 44.6878 242 52.555 242 60.5L302.5 60.5L363 60.5C363 52.555 361.435 44.6878 358.395 37.3476C355.354 30.0075 350.898 23.338 345.28 17.72C339.662 12.1021 332.993 7.6457 325.652 4.6053C318.312 1.56489 310.445 1.15488e-05 302.5 5.28908e-06C294.555 5.98365e-06 286.688 1.56488 279.348 4.60529C272.007 7.6457 265.338 12.1021 259.72 17.72C254.102 23.338 249.646 30.0075 246.605 37.3477Z" fill="#2653B1"/>
<path d="M479.395 37.3477C482.435 44.6879 484 52.5551 484 60.5C484 68.4449 482.435 76.3121 479.395 83.6523C476.354 90.9925 471.898 97.662 466.28 103.28C460.662 108.898 453.992 113.354 446.652 116.395C439.312 119.435 431.445 121 423.5 121C415.555 121 407.688 119.435 400.348 116.395C393.007 113.354 386.338 108.898 380.72 103.28C375.102 97.662 370.646 90.9925 367.605 83.6523C364.565 76.3121 363 68.4449 363 60.5L363 5.28908e-06L423.5 2.64454e-06C431.445 2.29725e-06 439.312 1.56494 446.652 4.6053C453.992 7.64566 460.662 12.1021 466.28 17.72C471.898 23.338 476.354 30.0075 479.395 37.3477Z" fill="#FD4F4F"/>
<rect x="484" width="242" height="121" fill="#FFAF00"/>
<circle cx="786.5" cy="60.5" r="60.5" fill="#FD4F4F"/>
<path d="M907.727 0L847 60.7266L907.273 121L907.727 0Z" fill="#03C9A5"/>
<path d="M968.453 0L907.727 60.7266L968 121L968.453 0Z" fill="#03C9A5"/>
<path fill-rule="evenodd" clip-rule="evenodd" d="M977.664 74.6953C971.583 89.3757 968.453 105.11 968.453 121L1089.45 121L1210.45 121C1210.45 105.11 1207.32 89.3757 1201.24 74.6953C1195.16 60.0149 1186.25 46.676 1175.01 35.4401C1163.78 24.2042 1150.44 15.2914 1135.76 9.21059C1121.08 3.12977 1105.34 1.5796e-05 1089.45 1.05782e-05C1073.56 1.19673e-05 1057.83 3.12977 1043.15 9.21059C1028.47 15.2914 1015.13 24.2042 1003.89 35.4401C992.657 46.676 983.744 60.0149 977.664 74.6953Z" fill="#2653B1"/>
</svg>
