<svg width="1211" height="121" viewBox="0 0 1211 121" fill="none" xmlns="http://www.w3.org/2000/svg">
<circle cx="1149.95" cy="60.5" r="60.5" transform="rotate(-180 1149.95 60.5)" fill="#FFAF00"/>
<rect x="1089.45" y="121" width="121" height="121" transform="rotate(-180 1089.45 121)" fill="#03C9A5"/>
<path fill-rule="evenodd" clip-rule="evenodd" d="M963.848 23.1523C966.888 15.8122 968.453 7.94498 968.453 4.68064e-06L907.953 9.96971e-06L847.453 7.62939e-06C847.453 7.94498 849.018 15.8122 852.058 23.1524C855.099 30.4925 859.555 37.162 865.173 42.78C870.791 48.3979 877.461 52.8543 884.801 55.8947C892.141 58.9351 900.008 60.5 907.953 60.5C915.898 60.5 923.765 58.9351 931.106 55.8947C938.446 52.8543 945.115 48.3979 950.733 42.78C956.351 37.162 960.807 30.4925 963.848 23.1523Z" fill="#2653B1"/>
<path fill-rule="evenodd" clip-rule="evenodd" d="M963.848 83.6523C966.888 76.3122 968.453 68.445 968.453 60.5L907.953 60.5L847.453 60.5C847.453 68.445 849.018 76.3122 852.058 83.6524C855.099 90.9925 859.555 97.662 865.173 103.28C870.791 108.898 877.461 113.354 884.801 116.395C892.141 119.435 900.008 121 907.953 121C915.898 121 923.765 119.435 931.106 116.395C938.446 113.354 945.115 108.898 950.733 103.28C956.351 97.662 960.807 90.9925 963.848 83.6523Z" fill="#2653B1"/>
<path d="M731.058 83.6523C728.018 76.3121 726.453 68.4449 726.453 60.5C726.453 52.5551 728.018 44.6879 731.058 37.3477C734.099 30.0075 738.555 23.338 744.173 17.72C749.791 12.1021 756.461 7.64567 763.801 4.60531C771.141 1.56494 779.008 5.33214e-06 786.953 4.98486e-06C794.898 4.63757e-06 802.765 1.56494 810.106 4.6053C817.446 7.64566 824.115 12.1021 829.733 17.72C835.351 23.338 839.807 30.0075 842.848 37.3477C845.888 44.6879 847.453 52.5551 847.453 60.5L847.453 121L786.953 121C779.008 121 771.141 119.435 763.801 116.395C756.461 113.354 749.791 108.898 744.173 103.28C738.555 97.662 734.099 90.9925 731.058 83.6523Z" fill="#FD4F4F"/>
<rect x="726.453" y="121" width="242" height="121" transform="rotate(-180 726.453 121)" fill="#FFAF00"/>
<circle cx="423.953" cy="60.5" r="60.5" transform="rotate(-180 423.953 60.5)" fill="#FD4F4F"/>
<path d="M302.727 121L363.453 60.2734L303.18 0L302.727 121Z" fill="#03C9A5"/>
<path d="M242 121L302.727 60.2734L242.453 0L242 121Z" fill="#03C9A5"/>
<path fill-rule="evenodd" clip-rule="evenodd" d="M232.789 46.3047C238.87 31.6243 242 15.89 242 9.36127e-06L121 1.99394e-05L8.09746e-05 2.28882e-05C8.23637e-05 15.89 3.12984 31.6243 9.21066 46.3047C15.2915 60.9851 24.2043 74.324 35.4402 85.5599C46.676 96.7958 60.015 105.709 74.6954 111.789C89.3758 117.87 105.11 121 121 121C136.89 121 152.624 117.87 167.305 111.789C181.985 105.709 195.324 96.7958 206.56 85.5599C217.796 74.324 226.709 60.9851 232.789 46.3047Z" fill="#2653B1"/>
</svg>
