<svg width="69" height="32" viewBox="0 0 69 32" fill="none" xmlns="http://www.w3.org/2000/svg">
<g clip-path="url(#clip0_11_280)">
<path d="M50.6942 26.8514H25.2744V20.6736H55.1045L50.6942 26.8514Z" fill="#3E96C6"/>
<path d="M61.5679 11.6199H25.2744V4.9093H66.3584L61.5679 11.6199Z" fill="#F9B253"/>
<path d="M16.0392 30.5448C24.0941 30.5448 30.6239 24.0327 30.6239 15.9997C30.6239 7.96663 24.0941 1.45456 16.0392 1.45456C7.98431 1.45456 1.45453 7.96663 1.45453 15.9997C1.45453 24.0327 7.98431 30.5448 16.0392 30.5448Z" fill="#384556"/>
<path d="M16.0392 28.6391C23.0388 28.6391 28.713 22.9803 28.713 15.9997C28.713 9.01911 23.0388 3.36023 16.0392 3.36023C9.03963 3.36023 3.36536 9.01911 3.36536 15.9997C3.36536 22.9803 9.03963 28.6391 16.0392 28.6391Z" fill="white"/>
<path d="M59.9582 21.0062H16.0186L23.281 10.7545H67.2764L64.9351 14.0344H56.1008V17.6797H62.3325L59.9582 21.0062Z" fill="white"/>
<path d="M15.3241 8.27008C18.4981 8.27008 20.9329 8.98393 22.6292 10.4109C24.2471 11.8078 25.0564 13.7059 25.0564 16.1046V16.1499C25.0564 18.5945 24.2313 20.5303 22.5824 21.9573C20.8242 23.4605 18.3427 24.212 15.1371 24.212H9.0697V8.27008H15.3248H15.3241ZM14.5306 19.5669H15.441C18.179 19.5669 19.5487 18.4663 19.5487 16.2644V16.2191C19.5487 14.0179 18.1797 12.9166 15.441 12.9166H14.5306V19.5669Z" fill="#404E63"/>
<path d="M31.8746 13.472V14.9532H29.1208V15.5011H31.6869V16.8047H29.1208V17.391H31.9124V18.8722H27.3949V13.4727H31.8746V13.472Z" fill="#404E63"/>
<path d="M33.9828 16.9124C34.5129 17.3341 35.1256 17.5446 35.8214 17.5446C36.1219 17.5446 36.2718 17.4678 36.2718 17.3128V17.2978C36.2718 17.1586 36.0291 17.0406 35.5436 16.9432C34.8381 16.7992 34.3231 16.6216 33.9979 16.4111C33.5523 16.1231 33.3302 15.7219 33.3302 15.2076V15.1919C33.3302 14.657 33.52 14.225 33.9002 13.8958C34.3101 13.5461 34.8629 13.3712 35.5587 13.3712C36.5289 13.3712 37.3197 13.6181 37.9296 14.1118L37.0742 15.3304C36.5991 14.9759 36.0738 14.7983 35.4982 14.7983C35.2431 14.7983 35.1152 14.873 35.1152 15.0218V15.0369C35.1152 15.1754 35.3476 15.2913 35.8132 15.3839C36.5633 15.5224 37.1065 15.7075 37.4414 15.9393C37.8512 16.2225 38.0568 16.6182 38.0568 17.127V17.1421C38.0568 17.7078 37.8464 18.1556 37.4263 18.4841C37.0158 18.8077 36.4533 18.9703 35.7382 18.9703C34.6126 18.9703 33.7146 18.6672 33.0442 18.0603L33.9821 16.911L33.9828 16.9124Z" fill="#404E63"/>
<path d="M41.1262 13.472V18.8715H39.3701V13.472H41.1262Z" fill="#404E63"/>
<path d="M43.0474 18.216C42.4719 17.6866 42.1844 17.0097 42.1844 16.1869V16.1711C42.1844 15.364 42.4595 14.6927 43.0096 14.1578C43.5596 13.6229 44.25 13.3555 45.0806 13.3555C45.9112 13.3555 46.6738 13.6284 47.2789 14.1729L46.2956 15.3914C45.9401 15.078 45.553 14.921 45.1322 14.921C44.7918 14.921 44.5092 15.0417 44.2844 15.2838C44.0643 15.5258 43.9543 15.8289 43.9543 16.1937V16.2095C43.9543 16.5901 44.0719 16.9014 44.3071 17.1428C44.5367 17.3794 44.8372 17.4973 45.2071 17.4973C45.4671 17.4973 45.6671 17.4562 45.8074 17.3739V16.8335H44.9067V15.6767H47.4508V18.1762C46.8058 18.7159 46.0329 18.986 45.1322 18.986C44.2919 18.986 43.5961 18.7289 43.046 18.2146L43.0474 18.216Z" fill="#404E63"/>
<path d="M50.4233 13.472L52.2915 15.8557V13.472H54.0325V18.8715H52.4717L50.521 16.3802V18.8715H48.78V13.472H50.4233Z" fill="#404E63"/>
</g>
<defs>
<clipPath id="clip0_11_280">
<rect width="65.8219" height="29.0909" fill="white" transform="translate(1.45453 1.45456)"/>
</clipPath>
</defs>
</svg>
