<svg width="301" height="300" viewBox="0 0 301 300" fill="none" xmlns="http://www.w3.org/2000/svg">
<rect x="0.75" width="299.75" height="300" rx="149.875" fill="#FFAF00"/>
<path d="M117.56 157.2C116.333 157.2 115.26 156.987 114.34 156.56C113.433 156.12 112.673 155.54 112.06 154.82C111.447 154.087 110.987 153.267 110.68 152.36C110.373 151.453 110.22 150.527 110.22 149.58C110.22 148.647 110.373 147.727 110.68 146.82C110.987 145.913 111.447 145.1 112.06 144.38C112.673 143.647 113.433 143.067 114.34 142.64C115.26 142.213 116.333 142 117.56 142C118.587 142 119.46 142.133 120.18 142.4C120.913 142.653 121.52 142.987 122 143.4C122.493 143.8 122.887 144.233 123.18 144.7C123.487 145.153 123.713 145.587 123.86 146C124.007 146.4 124.1 146.733 124.14 147C124.193 147.253 124.22 147.38 124.22 147.38H121.16C121.16 147.38 121.133 147.293 121.08 147.12C121.04 146.933 120.953 146.713 120.82 146.46C120.687 146.193 120.487 145.933 120.22 145.68C119.967 145.427 119.62 145.213 119.18 145.04C118.753 144.853 118.22 144.76 117.58 144.76C116.66 144.76 115.887 145 115.26 145.48C114.647 145.947 114.18 146.547 113.86 147.28C113.553 148.013 113.4 148.78 113.4 149.58C113.4 150.38 113.553 151.153 113.86 151.9C114.18 152.633 114.647 153.24 115.26 153.72C115.887 154.187 116.66 154.42 117.58 154.42C118.22 154.42 118.753 154.333 119.18 154.16C119.62 153.987 119.967 153.773 120.22 153.52C120.487 153.253 120.687 152.993 120.82 152.74C120.953 152.473 121.04 152.253 121.08 152.08C121.133 151.907 121.16 151.82 121.16 151.82H124.22C124.22 151.82 124.193 151.953 124.14 152.22C124.1 152.473 124.007 152.807 123.86 153.22C123.713 153.62 123.487 154.053 123.18 154.52C122.887 154.973 122.493 155.407 122 155.82C121.52 156.22 120.913 156.553 120.18 156.82C119.46 157.073 118.587 157.2 117.56 157.2ZM131.755 157.2C130.569 157.2 129.562 156.947 128.735 156.44C127.909 155.92 127.275 155.247 126.835 154.42C126.409 153.58 126.195 152.673 126.195 151.7C126.195 150.727 126.409 149.827 126.835 149C127.275 148.16 127.909 147.487 128.735 146.98C129.562 146.46 130.569 146.2 131.755 146.2C132.942 146.2 133.949 146.46 134.775 146.98C135.602 147.487 136.229 148.16 136.655 149C137.095 149.827 137.315 150.727 137.315 151.7C137.315 152.673 137.095 153.58 136.655 154.42C136.229 155.247 135.602 155.92 134.775 156.44C133.949 156.947 132.942 157.2 131.755 157.2ZM131.755 154.72C132.289 154.72 132.735 154.58 133.095 154.3C133.469 154.02 133.755 153.653 133.955 153.2C134.155 152.733 134.255 152.233 134.255 151.7C134.255 151.153 134.155 150.653 133.955 150.2C133.755 149.747 133.469 149.38 133.095 149.1C132.735 148.82 132.289 148.68 131.755 148.68C131.222 148.68 130.769 148.82 130.395 149.1C130.022 149.38 129.735 149.747 129.535 150.2C129.349 150.653 129.255 151.153 129.255 151.7C129.255 152.233 129.349 152.733 129.535 153.2C129.735 153.653 130.022 154.02 130.395 154.3C130.769 154.58 131.222 154.72 131.755 154.72ZM139.532 157V146.4H142.572V147.92H142.672C142.792 147.707 142.966 147.467 143.192 147.2C143.432 146.933 143.746 146.7 144.132 146.5C144.532 146.3 145.039 146.2 145.652 146.2C146.479 146.2 147.152 146.393 147.672 146.78C148.192 147.153 148.572 147.64 148.812 148.24C149.052 148.827 149.172 149.447 149.172 150.1V157H146.132V150.62C146.132 150.113 145.992 149.667 145.712 149.28C145.446 148.893 145.012 148.7 144.412 148.7C143.959 148.7 143.599 148.807 143.332 149.02C143.066 149.233 142.872 149.507 142.752 149.84C142.632 150.173 142.572 150.527 142.572 150.9V157H139.532ZM156.419 157.2C155.592 157.2 154.932 157.08 154.439 156.84C153.946 156.587 153.572 156.273 153.319 155.9C153.066 155.513 152.899 155.107 152.819 154.68C152.739 154.253 152.699 153.86 152.699 153.5V148.82H150.899V146.4H152.699V143.78H155.739V146.4H157.999V148.82H155.739V153.42C155.739 153.86 155.852 154.2 156.079 154.44C156.319 154.68 156.712 154.8 157.259 154.8C157.499 154.8 157.719 154.78 157.919 154.74C158.119 154.7 158.219 154.68 158.219 154.68V157.02C158.219 157.02 158.039 157.047 157.679 157.1C157.319 157.167 156.899 157.2 156.419 157.2ZM165.522 157.2C164.589 157.2 163.782 157.047 163.102 156.74C162.422 156.42 161.862 156 161.422 155.48C160.982 154.947 160.649 154.353 160.422 153.7C160.209 153.047 160.102 152.373 160.102 151.68C160.102 151.013 160.202 150.36 160.402 149.72C160.616 149.067 160.936 148.473 161.362 147.94C161.802 147.407 162.356 146.987 163.022 146.68C163.702 146.36 164.502 146.2 165.422 146.2C166.396 146.2 167.256 146.413 168.002 146.84C168.762 147.267 169.356 147.9 169.782 148.74C170.209 149.567 170.422 150.573 170.422 151.76V152.5H163.162C163.202 153.14 163.422 153.693 163.822 154.16C164.236 154.627 164.802 154.86 165.522 154.86C165.936 154.86 166.269 154.8 166.522 154.68C166.789 154.547 166.996 154.4 167.142 154.24C167.289 154.067 167.389 153.913 167.442 153.78C167.496 153.647 167.522 153.58 167.522 153.58H170.322C170.322 153.58 170.289 153.707 170.222 153.96C170.169 154.2 170.049 154.5 169.862 154.86C169.676 155.22 169.402 155.58 169.042 155.94C168.696 156.3 168.236 156.6 167.662 156.84C167.089 157.08 166.376 157.2 165.522 157.2ZM163.162 150.66H167.502C167.462 149.927 167.242 149.38 166.842 149.02C166.442 148.66 165.949 148.48 165.362 148.48C164.776 148.48 164.276 148.673 163.862 149.06C163.449 149.433 163.216 149.967 163.162 150.66ZM172.639 157V146.4H175.679V147.92H175.779C175.899 147.707 176.072 147.467 176.299 147.2C176.539 146.933 176.852 146.7 177.239 146.5C177.639 146.3 178.145 146.2 178.759 146.2C179.585 146.2 180.259 146.393 180.779 146.78C181.299 147.153 181.679 147.64 181.919 148.24C182.159 148.827 182.279 149.447 182.279 150.1V157H179.239V150.62C179.239 150.113 179.099 149.667 178.819 149.28C178.552 148.893 178.119 148.7 177.519 148.7C177.065 148.7 176.705 148.807 176.439 149.02C176.172 149.233 175.979 149.507 175.859 149.84C175.739 150.173 175.679 150.527 175.679 150.9V157H172.639ZM189.525 157.2C188.699 157.2 188.039 157.08 187.545 156.84C187.052 156.587 186.679 156.273 186.425 155.9C186.172 155.513 186.005 155.107 185.925 154.68C185.845 154.253 185.805 153.86 185.805 153.5V148.82H184.005V146.4H185.805V143.78H188.845V146.4H191.105V148.82H188.845V153.42C188.845 153.86 188.959 154.2 189.185 154.44C189.425 154.68 189.819 154.8 190.365 154.8C190.605 154.8 190.825 154.78 191.025 154.74C191.225 154.7 191.325 154.68 191.325 154.68V157.02C191.325 157.02 191.145 157.047 190.785 157.1C190.425 157.167 190.005 157.2 189.525 157.2Z" fill="white"/>
</svg>
