<svg width="301" height="300" viewBox="0 0 301 300" fill="none" xmlns="http://www.w3.org/2000/svg">
<rect x="0.5" width="299.75" height="300" rx="149.875" fill="#2653B1"/>
<path d="M109.54 157V142.2H115.14C116.34 142.2 117.393 142.413 118.3 142.84C119.22 143.253 119.98 143.813 120.58 144.52C121.18 145.227 121.633 146.02 121.94 146.9C122.246 147.78 122.4 148.68 122.4 149.6C122.4 150.52 122.246 151.42 121.94 152.3C121.633 153.18 121.18 153.973 120.58 154.68C119.98 155.387 119.22 155.953 118.3 156.38C117.393 156.793 116.34 157 115.14 157H109.54ZM115 144.9H112.62V154.26H115C115.973 154.26 116.773 154.033 117.4 153.58C118.04 153.127 118.513 152.54 118.82 151.82C119.14 151.1 119.3 150.353 119.3 149.58C119.3 148.807 119.14 148.067 118.82 147.36C118.513 146.64 118.04 146.053 117.4 145.6C116.773 145.133 115.973 144.9 115 144.9ZM124.509 157V146.4H127.529V147.94H127.629C127.749 147.66 127.916 147.387 128.129 147.12C128.343 146.853 128.636 146.633 129.009 146.46C129.383 146.287 129.863 146.2 130.449 146.2C130.743 146.2 130.976 146.22 131.149 146.26C131.323 146.287 131.409 146.3 131.409 146.3V149.3C131.409 149.3 131.309 149.28 131.109 149.24C130.923 149.2 130.676 149.18 130.369 149.18C129.423 149.18 128.716 149.44 128.249 149.96C127.783 150.467 127.549 151.3 127.549 152.46V157H124.509ZM137.304 146.2C137.984 146.2 138.544 146.313 138.984 146.54C139.424 146.753 139.758 146.987 139.984 147.24C140.224 147.493 140.371 147.667 140.424 147.76H140.584V146.4H143.624V157H140.584V155.64H140.424C140.371 155.733 140.224 155.907 139.984 156.16C139.758 156.413 139.424 156.653 138.984 156.88C138.544 157.093 137.984 157.2 137.304 157.2C136.518 157.2 135.831 157.047 135.244 156.74C134.671 156.42 134.191 156 133.804 155.48C133.418 154.947 133.124 154.353 132.924 153.7C132.738 153.047 132.644 152.38 132.644 151.7C132.644 151.02 132.738 150.353 132.924 149.7C133.124 149.047 133.418 148.46 133.804 147.94C134.191 147.407 134.671 146.987 135.244 146.68C135.831 146.36 136.518 146.2 137.304 146.2ZM138.184 148.66C137.638 148.66 137.178 148.813 136.804 149.12C136.444 149.413 136.171 149.793 135.984 150.26C135.811 150.727 135.724 151.207 135.724 151.7C135.724 152.193 135.811 152.673 135.984 153.14C136.171 153.607 136.444 153.993 136.804 154.3C137.178 154.593 137.638 154.74 138.184 154.74C138.731 154.74 139.184 154.593 139.544 154.3C139.918 153.993 140.191 153.607 140.364 153.14C140.551 152.673 140.644 152.193 140.644 151.7C140.644 151.207 140.551 150.727 140.364 150.26C140.191 149.793 139.918 149.413 139.544 149.12C139.184 148.813 138.731 148.66 138.184 148.66ZM148.288 157L145.008 146.4H148.048L149.948 153.28L152.008 146.4H154.768L156.828 153.28L158.728 146.4H161.768L158.488 157H155.268L153.388 150.8L151.508 157H148.288ZM165.333 144.96C164.8 144.96 164.367 144.793 164.033 144.46C163.7 144.113 163.533 143.707 163.533 143.24C163.533 142.747 163.7 142.333 164.033 142C164.367 141.653 164.8 141.48 165.333 141.48C165.84 141.48 166.267 141.653 166.613 142C166.96 142.333 167.133 142.747 167.133 143.24C167.133 143.707 166.96 144.113 166.613 144.46C166.267 144.793 165.84 144.96 165.333 144.96ZM163.813 157V146.4H166.853V157H163.813ZM169.601 157V146.4H172.641V147.92H172.741C172.861 147.707 173.035 147.467 173.261 147.2C173.501 146.933 173.815 146.7 174.201 146.5C174.601 146.3 175.108 146.2 175.721 146.2C176.548 146.2 177.221 146.393 177.741 146.78C178.261 147.153 178.641 147.64 178.881 148.24C179.121 148.827 179.241 149.447 179.241 150.1V157H176.201V150.62C176.201 150.113 176.061 149.667 175.781 149.28C175.515 148.893 175.081 148.7 174.481 148.7C174.028 148.7 173.668 148.807 173.401 149.02C173.135 149.233 172.941 149.507 172.821 149.84C172.701 150.173 172.641 150.527 172.641 150.9V157H169.601ZM187.027 161.24C186.041 161.24 185.227 161.12 184.587 160.88C183.961 160.64 183.461 160.333 183.087 159.96C182.714 159.6 182.441 159.24 182.267 158.88C182.094 158.52 181.981 158.213 181.927 157.96C181.887 157.72 181.867 157.6 181.867 157.6H184.827C184.827 157.6 184.847 157.66 184.887 157.78C184.941 157.913 185.041 158.06 185.187 158.22C185.334 158.393 185.547 158.54 185.827 158.66C186.121 158.793 186.507 158.86 186.987 158.86C187.814 158.86 188.421 158.627 188.807 158.16C189.207 157.693 189.407 157.08 189.407 156.32V155.2H189.267C189.134 155.413 188.934 155.647 188.667 155.9C188.401 156.153 188.061 156.367 187.647 156.54C187.234 156.713 186.734 156.8 186.147 156.8C185.361 156.8 184.674 156.653 184.087 156.36C183.501 156.053 183.007 155.647 182.607 155.14C182.221 154.633 181.927 154.067 181.727 153.44C181.541 152.813 181.447 152.167 181.447 151.5C181.447 150.847 181.541 150.207 181.727 149.58C181.927 148.94 182.221 148.367 182.607 147.86C183.007 147.353 183.501 146.953 184.087 146.66C184.674 146.353 185.361 146.2 186.147 146.2C186.734 146.2 187.234 146.293 187.647 146.48C188.061 146.653 188.401 146.867 188.667 147.12C188.947 147.36 189.147 147.593 189.267 147.82H189.407V146.4H192.447V156.32C192.447 157.2 192.254 158.013 191.867 158.76C191.481 159.507 190.887 160.107 190.087 160.56C189.287 161.013 188.267 161.24 187.027 161.24ZM186.987 154.4C187.547 154.4 188.007 154.26 188.367 153.98C188.741 153.7 189.021 153.34 189.207 152.9C189.394 152.447 189.487 151.98 189.487 151.5C189.487 151.007 189.394 150.54 189.207 150.1C189.021 149.66 188.741 149.3 188.367 149.02C188.007 148.74 187.547 148.6 186.987 148.6C186.441 148.6 185.981 148.74 185.607 149.02C185.247 149.3 184.974 149.66 184.787 150.1C184.601 150.54 184.507 151.007 184.507 151.5C184.507 151.98 184.601 152.447 184.787 152.9C184.974 153.34 185.247 153.7 185.607 153.98C185.981 154.26 186.441 154.4 186.987 154.4Z" fill="white"/>
</svg>
