<svg width="301" height="300" viewBox="0 0 301 300" fill="none" xmlns="http://www.w3.org/2000/svg">
<path d="M300.5 100C300.5 44.7715 255.728 0 200.5 0H0.75V200C0.75 255.228 45.5215 300 100.75 300H300.5V100Z" fill="#03C9A5"/>
<path d="M117.41 157.2C116.17 157.2 115.083 156.987 114.15 156.56C113.217 156.133 112.437 155.56 111.81 154.84C111.197 154.107 110.737 153.293 110.43 152.4C110.123 151.493 109.97 150.567 109.97 149.62C109.97 148.673 110.123 147.747 110.43 146.84C110.75 145.933 111.217 145.12 111.83 144.4C112.457 143.667 113.243 143.087 114.19 142.66C115.137 142.22 116.243 142 117.51 142C118.497 142 119.343 142.127 120.05 142.38C120.77 142.62 121.37 142.94 121.85 143.34C122.33 143.727 122.71 144.14 122.99 144.58C123.283 145.02 123.503 145.44 123.65 145.84C123.81 146.227 123.91 146.547 123.95 146.8C124.003 147.04 124.03 147.16 124.03 147.16H120.97C120.97 147.16 120.93 147.04 120.85 146.8C120.77 146.56 120.61 146.28 120.37 145.96C120.13 145.627 119.777 145.34 119.31 145.1C118.857 144.847 118.257 144.72 117.51 144.72C116.537 144.72 115.723 144.96 115.07 145.44C114.43 145.907 113.943 146.513 113.61 147.26C113.29 147.993 113.13 148.76 113.13 149.56C113.13 150.387 113.297 151.18 113.63 151.94C113.963 152.687 114.45 153.3 115.09 153.78C115.743 154.247 116.557 154.48 117.53 154.48C118.597 154.48 119.437 154.207 120.05 153.66C120.677 153.113 121.05 152.373 121.17 151.44H117.33V149.02H124.21V150.16C124.21 151.707 123.91 153.007 123.31 154.06C122.723 155.1 121.917 155.887 120.89 156.42C119.877 156.94 118.717 157.2 117.41 157.2ZM126.281 157V146.4H129.301V147.94H129.401C129.521 147.66 129.687 147.387 129.901 147.12C130.114 146.853 130.407 146.633 130.781 146.46C131.154 146.287 131.634 146.2 132.221 146.2C132.514 146.2 132.747 146.22 132.921 146.26C133.094 146.287 133.181 146.3 133.181 146.3V149.3C133.181 149.3 133.081 149.28 132.881 149.24C132.694 149.2 132.447 149.18 132.141 149.18C131.194 149.18 130.487 149.44 130.021 149.96C129.554 150.467 129.321 151.3 129.321 152.46V157H126.281ZM139.076 146.2C139.756 146.2 140.316 146.313 140.756 146.54C141.196 146.753 141.529 146.987 141.756 147.24C141.996 147.493 142.142 147.667 142.196 147.76H142.356V146.4H145.396V157H142.356V155.64H142.196C142.142 155.733 141.996 155.907 141.756 156.16C141.529 156.413 141.196 156.653 140.756 156.88C140.316 157.093 139.756 157.2 139.076 157.2C138.289 157.2 137.602 157.047 137.016 156.74C136.442 156.42 135.962 156 135.576 155.48C135.189 154.947 134.896 154.353 134.696 153.7C134.509 153.047 134.416 152.38 134.416 151.7C134.416 151.02 134.509 150.353 134.696 149.7C134.896 149.047 135.189 148.46 135.576 147.94C135.962 147.407 136.442 146.987 137.016 146.68C137.602 146.36 138.289 146.2 139.076 146.2ZM139.956 148.66C139.409 148.66 138.949 148.813 138.576 149.12C138.216 149.413 137.942 149.793 137.756 150.26C137.582 150.727 137.496 151.207 137.496 151.7C137.496 152.193 137.582 152.673 137.756 153.14C137.942 153.607 138.216 153.993 138.576 154.3C138.949 154.593 139.409 154.74 139.956 154.74C140.502 154.74 140.956 154.593 141.316 154.3C141.689 153.993 141.962 153.607 142.136 153.14C142.322 152.673 142.416 152.193 142.416 151.7C142.416 151.207 142.322 150.727 142.136 150.26C141.962 149.793 141.689 149.413 141.316 149.12C140.956 148.813 140.502 148.66 139.956 148.66ZM148.128 160.9V146.4H151.168V147.76H151.308C151.375 147.667 151.522 147.493 151.748 147.24C151.988 146.987 152.328 146.753 152.768 146.54C153.208 146.313 153.768 146.2 154.448 146.2C155.235 146.2 155.915 146.36 156.488 146.68C157.075 146.987 157.562 147.407 157.948 147.94C158.335 148.46 158.622 149.047 158.808 149.7C159.008 150.353 159.108 151.02 159.108 151.7C159.108 152.38 159.008 153.047 158.808 153.7C158.622 154.353 158.335 154.947 157.948 155.48C157.562 156 157.075 156.42 156.488 156.74C155.915 157.047 155.235 157.2 154.448 157.2C153.768 157.2 153.208 157.093 152.768 156.88C152.328 156.653 151.988 156.413 151.748 156.16C151.522 155.907 151.375 155.733 151.308 155.64H151.168V160.9H148.128ZM151.108 151.7C151.108 152.193 151.195 152.673 151.368 153.14C151.555 153.607 151.828 153.993 152.188 154.3C152.562 154.593 153.022 154.74 153.568 154.74C154.115 154.74 154.568 154.593 154.928 154.3C155.302 153.993 155.575 153.607 155.748 153.14C155.935 152.673 156.028 152.193 156.028 151.7C156.028 151.207 155.935 150.727 155.748 150.26C155.575 149.793 155.302 149.413 154.928 149.12C154.568 148.813 154.115 148.66 153.568 148.66C153.022 148.66 152.562 148.813 152.188 149.12C151.828 149.413 151.555 149.793 151.368 150.26C151.195 150.727 151.108 151.207 151.108 151.7ZM161.521 157V141.8H164.561V147.92H164.661C164.781 147.707 164.954 147.467 165.181 147.2C165.421 146.933 165.734 146.7 166.121 146.5C166.521 146.3 167.027 146.2 167.641 146.2C168.467 146.2 169.141 146.393 169.661 146.78C170.181 147.153 170.561 147.64 170.801 148.24C171.041 148.827 171.161 149.447 171.161 150.1V157H168.121V150.62C168.121 150.113 167.981 149.667 167.701 149.28C167.434 148.893 167.001 148.7 166.401 148.7C165.947 148.7 165.587 148.807 165.321 149.02C165.054 149.233 164.861 149.507 164.741 149.84C164.621 150.173 164.561 150.527 164.561 150.9V157H161.521ZM175.439 144.96C174.905 144.96 174.472 144.793 174.139 144.46C173.805 144.113 173.639 143.707 173.639 143.24C173.639 142.747 173.805 142.333 174.139 142C174.472 141.653 174.905 141.48 175.439 141.48C175.945 141.48 176.372 141.653 176.719 142C177.065 142.333 177.239 142.747 177.239 143.24C177.239 143.707 177.065 144.113 176.719 144.46C176.372 144.793 175.945 144.96 175.439 144.96ZM173.919 157V146.4H176.959V157H173.919ZM185.086 157.2C184.153 157.2 183.34 157.047 182.646 156.74C181.953 156.42 181.38 156 180.926 155.48C180.473 154.96 180.133 154.373 179.906 153.72C179.68 153.053 179.566 152.38 179.566 151.7C179.566 151.02 179.68 150.353 179.906 149.7C180.133 149.047 180.473 148.46 180.926 147.94C181.38 147.407 181.953 146.987 182.646 146.68C183.34 146.36 184.153 146.2 185.086 146.2C186.033 146.2 186.813 146.34 187.426 146.62C188.04 146.887 188.526 147.227 188.886 147.64C189.26 148.04 189.533 148.447 189.706 148.86C189.88 149.26 189.986 149.6 190.026 149.88C190.08 150.147 190.106 150.28 190.106 150.28H187.266C187.266 150.28 187.24 150.2 187.186 150.04C187.146 149.867 187.053 149.673 186.906 149.46C186.773 149.233 186.566 149.04 186.286 148.88C186.006 148.707 185.633 148.62 185.166 148.62C184.593 148.62 184.113 148.767 183.726 149.06C183.353 149.34 183.073 149.713 182.886 150.18C182.7 150.647 182.606 151.153 182.606 151.7C182.606 152.247 182.7 152.753 182.886 153.22C183.073 153.687 183.353 154.067 183.726 154.36C184.113 154.64 184.593 154.78 185.166 154.78C185.633 154.78 186.006 154.7 186.286 154.54C186.566 154.367 186.773 154.173 186.906 153.96C187.053 153.733 187.146 153.54 187.186 153.38C187.24 153.207 187.266 153.12 187.266 153.12H190.106C190.106 153.12 190.08 153.26 190.026 153.54C189.986 153.807 189.88 154.147 189.706 154.56C189.533 154.96 189.26 155.367 188.886 155.78C188.526 156.18 188.04 156.52 187.426 156.8C186.813 157.067 186.033 157.2 185.086 157.2Z" fill="black"/>
</svg>
