<svg width="300" height="300" viewBox="0 0 300 300" fill="none" xmlns="http://www.w3.org/2000/svg">
<rect width="299.75" height="300" fill="#2653B1"/>
<path d="M84.36 157V142.2H90.46C91.6733 142.2 92.68 142.44 93.48 142.92C94.2933 143.4 94.9 144.02 95.3 144.78C95.7133 145.527 95.92 146.307 95.92 147.12C95.92 147.96 95.7133 148.76 95.3 149.52C94.9 150.267 94.2933 150.88 93.48 151.36C92.68 151.84 91.6733 152.08 90.46 152.08H87.44V157H84.36ZM90.46 144.9H87.44V149.4H90.46C90.98 149.4 91.4133 149.293 91.76 149.08C92.1067 148.853 92.3667 148.573 92.54 148.24C92.7267 147.893 92.82 147.527 92.82 147.14C92.82 146.767 92.7267 146.407 92.54 146.06C92.3667 145.713 92.1067 145.433 91.76 145.22C91.4133 145.007 90.98 144.9 90.46 144.9ZM98.0842 157V141.8H101.124V147.92H101.224C101.344 147.707 101.518 147.467 101.744 147.2C101.984 146.933 102.298 146.7 102.684 146.5C103.084 146.3 103.591 146.2 104.204 146.2C105.031 146.2 105.704 146.393 106.224 146.78C106.744 147.153 107.124 147.64 107.364 148.24C107.604 148.827 107.724 149.447 107.724 150.1V157H104.684V150.62C104.684 150.113 104.544 149.667 104.264 149.28C103.998 148.893 103.564 148.7 102.964 148.7C102.511 148.7 102.151 148.807 101.884 149.02C101.618 149.233 101.424 149.507 101.304 149.84C101.184 150.173 101.124 150.527 101.124 150.9V157H98.0842ZM115.505 157.2C114.318 157.2 113.312 156.947 112.485 156.44C111.658 155.92 111.025 155.247 110.585 154.42C110.158 153.58 109.945 152.673 109.945 151.7C109.945 150.727 110.158 149.827 110.585 149C111.025 148.16 111.658 147.487 112.485 146.98C113.312 146.46 114.318 146.2 115.505 146.2C116.692 146.2 117.698 146.46 118.525 146.98C119.352 147.487 119.978 148.16 120.405 149C120.845 149.827 121.065 150.727 121.065 151.7C121.065 152.673 120.845 153.58 120.405 154.42C119.978 155.247 119.352 155.92 118.525 156.44C117.698 156.947 116.692 157.2 115.505 157.2ZM115.505 154.72C116.038 154.72 116.485 154.58 116.845 154.3C117.218 154.02 117.505 153.653 117.705 153.2C117.905 152.733 118.005 152.233 118.005 151.7C118.005 151.153 117.905 150.653 117.705 150.2C117.505 149.747 117.218 149.38 116.845 149.1C116.485 148.82 116.038 148.68 115.505 148.68C114.972 148.68 114.518 148.82 114.145 149.1C113.772 149.38 113.485 149.747 113.285 150.2C113.098 150.653 113.005 151.153 113.005 151.7C113.005 152.233 113.098 152.733 113.285 153.2C113.485 153.653 113.772 154.02 114.145 154.3C114.518 154.58 114.972 154.72 115.505 154.72ZM128.144 157.2C127.317 157.2 126.657 157.08 126.164 156.84C125.67 156.587 125.297 156.273 125.044 155.9C124.79 155.513 124.624 155.107 124.544 154.68C124.464 154.253 124.424 153.86 124.424 153.5V148.82H122.624V146.4H124.424V143.78H127.464V146.4H129.724V148.82H127.464V153.42C127.464 153.86 127.577 154.2 127.804 154.44C128.044 154.68 128.437 154.8 128.984 154.8C129.224 154.8 129.444 154.78 129.644 154.74C129.844 154.7 129.944 154.68 129.944 154.68V157.02C129.944 157.02 129.764 157.047 129.404 157.1C129.044 157.167 128.624 157.2 128.144 157.2ZM137.387 157.2C136.2 157.2 135.194 156.947 134.367 156.44C133.54 155.92 132.907 155.247 132.467 154.42C132.04 153.58 131.827 152.673 131.827 151.7C131.827 150.727 132.04 149.827 132.467 149C132.907 148.16 133.54 147.487 134.367 146.98C135.194 146.46 136.2 146.2 137.387 146.2C138.574 146.2 139.58 146.46 140.407 146.98C141.234 147.487 141.86 148.16 142.287 149C142.727 149.827 142.947 150.727 142.947 151.7C142.947 152.673 142.727 153.58 142.287 154.42C141.86 155.247 141.234 155.92 140.407 156.44C139.58 156.947 138.574 157.2 137.387 157.2ZM137.387 154.72C137.92 154.72 138.367 154.58 138.727 154.3C139.1 154.02 139.387 153.653 139.587 153.2C139.787 152.733 139.887 152.233 139.887 151.7C139.887 151.153 139.787 150.653 139.587 150.2C139.387 149.747 139.1 149.38 138.727 149.1C138.367 148.82 137.92 148.68 137.387 148.68C136.854 148.68 136.4 148.82 136.027 149.1C135.654 149.38 135.367 149.747 135.167 150.2C134.98 150.653 134.887 151.153 134.887 151.7C134.887 152.233 134.98 152.733 135.167 153.2C135.367 153.653 135.654 154.02 136.027 154.3C136.4 154.58 136.854 154.72 137.387 154.72ZM150.623 161.24C149.637 161.24 148.823 161.12 148.183 160.88C147.557 160.64 147.057 160.333 146.683 159.96C146.31 159.6 146.037 159.24 145.863 158.88C145.69 158.52 145.577 158.213 145.523 157.96C145.483 157.72 145.463 157.6 145.463 157.6H148.423C148.423 157.6 148.443 157.66 148.483 157.78C148.537 157.913 148.637 158.06 148.783 158.22C148.93 158.393 149.143 158.54 149.423 158.66C149.717 158.793 150.103 158.86 150.583 158.86C151.41 158.86 152.017 158.627 152.403 158.16C152.803 157.693 153.003 157.08 153.003 156.32V155.2H152.863C152.73 155.413 152.53 155.647 152.263 155.9C151.997 156.153 151.657 156.367 151.243 156.54C150.83 156.713 150.33 156.8 149.743 156.8C148.957 156.8 148.27 156.653 147.683 156.36C147.097 156.053 146.603 155.647 146.203 155.14C145.817 154.633 145.523 154.067 145.323 153.44C145.137 152.813 145.043 152.167 145.043 151.5C145.043 150.847 145.137 150.207 145.323 149.58C145.523 148.94 145.817 148.367 146.203 147.86C146.603 147.353 147.097 146.953 147.683 146.66C148.27 146.353 148.957 146.2 149.743 146.2C150.33 146.2 150.83 146.293 151.243 146.48C151.657 146.653 151.997 146.867 152.263 147.12C152.543 147.36 152.743 147.593 152.863 147.82H153.003V146.4H156.043V156.32C156.043 157.2 155.85 158.013 155.463 158.76C155.077 159.507 154.483 160.107 153.683 160.56C152.883 161.013 151.863 161.24 150.623 161.24ZM150.583 154.4C151.143 154.4 151.603 154.26 151.963 153.98C152.337 153.7 152.617 153.34 152.803 152.9C152.99 152.447 153.083 151.98 153.083 151.5C153.083 151.007 152.99 150.54 152.803 150.1C152.617 149.66 152.337 149.3 151.963 149.02C151.603 148.74 151.143 148.6 150.583 148.6C150.037 148.6 149.577 148.74 149.203 149.02C148.843 149.3 148.57 149.66 148.383 150.1C148.197 150.54 148.103 151.007 148.103 151.5C148.103 151.98 148.197 152.447 148.383 152.9C148.57 153.34 148.843 153.7 149.203 153.98C149.577 154.26 150.037 154.4 150.583 154.4ZM158.517 157V146.4H161.537V147.94H161.637C161.757 147.66 161.924 147.387 162.137 147.12C162.35 146.853 162.644 146.633 163.017 146.46C163.39 146.287 163.87 146.2 164.457 146.2C164.75 146.2 164.984 146.22 165.157 146.26C165.33 146.287 165.417 146.3 165.417 146.3V149.3C165.417 149.3 165.317 149.28 165.117 149.24C164.93 149.2 164.684 149.18 164.377 149.18C163.43 149.18 162.724 149.44 162.257 149.96C161.79 150.467 161.557 151.3 161.557 152.46V157H158.517ZM171.312 146.2C171.992 146.2 172.552 146.313 172.992 146.54C173.432 146.753 173.765 146.987 173.992 147.24C174.232 147.493 174.379 147.667 174.432 147.76H174.592V146.4H177.632V157H174.592V155.64H174.432C174.379 155.733 174.232 155.907 173.992 156.16C173.765 156.413 173.432 156.653 172.992 156.88C172.552 157.093 171.992 157.2 171.312 157.2C170.525 157.2 169.839 157.047 169.252 156.74C168.679 156.42 168.199 156 167.812 155.48C167.425 154.947 167.132 154.353 166.932 153.7C166.745 153.047 166.652 152.38 166.652 151.7C166.652 151.02 166.745 150.353 166.932 149.7C167.132 149.047 167.425 148.46 167.812 147.94C168.199 147.407 168.679 146.987 169.252 146.68C169.839 146.36 170.525 146.2 171.312 146.2ZM172.192 148.66C171.645 148.66 171.185 148.813 170.812 149.12C170.452 149.413 170.179 149.793 169.992 150.26C169.819 150.727 169.732 151.207 169.732 151.7C169.732 152.193 169.819 152.673 169.992 153.14C170.179 153.607 170.452 153.993 170.812 154.3C171.185 154.593 171.645 154.74 172.192 154.74C172.739 154.74 173.192 154.593 173.552 154.3C173.925 153.993 174.199 153.607 174.372 153.14C174.559 152.673 174.652 152.193 174.652 151.7C174.652 151.207 174.559 150.727 174.372 150.26C174.199 149.793 173.925 149.413 173.552 149.12C173.192 148.813 172.739 148.66 172.192 148.66ZM180.365 160.9V146.4H183.405V147.76H183.545C183.611 147.667 183.758 147.493 183.985 147.24C184.225 146.987 184.565 146.753 185.005 146.54C185.445 146.313 186.005 146.2 186.685 146.2C187.471 146.2 188.151 146.36 188.725 146.68C189.311 146.987 189.798 147.407 190.185 147.94C190.571 148.46 190.858 149.047 191.045 149.7C191.245 150.353 191.345 151.02 191.345 151.7C191.345 152.38 191.245 153.047 191.045 153.7C190.858 154.353 190.571 154.947 190.185 155.48C189.798 156 189.311 156.42 188.725 156.74C188.151 157.047 187.471 157.2 186.685 157.2C186.005 157.2 185.445 157.093 185.005 156.88C184.565 156.653 184.225 156.413 183.985 156.16C183.758 155.907 183.611 155.733 183.545 155.64H183.405V160.9H180.365ZM183.345 151.7C183.345 152.193 183.431 152.673 183.605 153.14C183.791 153.607 184.065 153.993 184.425 154.3C184.798 154.593 185.258 154.74 185.805 154.74C186.351 154.74 186.805 154.593 187.165 154.3C187.538 153.993 187.811 153.607 187.985 153.14C188.171 152.673 188.265 152.193 188.265 151.7C188.265 151.207 188.171 150.727 187.985 150.26C187.811 149.793 187.538 149.413 187.165 149.12C186.805 148.813 186.351 148.66 185.805 148.66C185.258 148.66 184.798 148.813 184.425 149.12C184.065 149.413 183.791 149.793 183.605 150.26C183.431 150.727 183.345 151.207 183.345 151.7ZM193.757 157V141.8H196.797V147.92H196.897C197.017 147.707 197.19 147.467 197.417 147.2C197.657 146.933 197.97 146.7 198.357 146.5C198.757 146.3 199.264 146.2 199.877 146.2C200.704 146.2 201.377 146.393 201.897 146.78C202.417 147.153 202.797 147.64 203.037 148.24C203.277 148.827 203.397 149.447 203.397 150.1V157H200.357V150.62C200.357 150.113 200.217 149.667 199.937 149.28C199.67 148.893 199.237 148.7 198.637 148.7C198.184 148.7 197.824 148.807 197.557 149.02C197.29 149.233 197.097 149.507 196.977 149.84C196.857 150.173 196.797 150.527 196.797 150.9V157H193.757ZM206.305 160.9C205.945 160.9 205.658 160.887 205.445 160.86C205.232 160.833 205.125 160.82 205.125 160.82V158.38C205.125 158.38 205.212 158.387 205.385 158.4C205.572 158.413 205.798 158.42 206.065 158.42C206.705 158.42 207.232 158.327 207.645 158.14C208.058 157.967 208.418 157.62 208.725 157.1L204.805 146.4H207.845L210.305 153.58L212.705 146.4H215.765L211.965 156.58C211.618 157.553 211.198 158.36 210.705 159C210.225 159.64 209.632 160.113 208.925 160.42C208.218 160.74 207.345 160.9 206.305 160.9Z" fill="white"/>
</svg>
