<svg width="301" height="300" viewBox="0 0 301 300" fill="none" xmlns="http://www.w3.org/2000/svg">
<rect width="299.75" height="300" transform="translate(0.5)" fill="#03C9A5"/>
<path d="M126.55 157.2C125.47 157.2 124.47 156.993 123.55 156.58C122.643 156.167 121.91 155.527 121.35 154.66C120.803 153.793 120.53 152.667 120.53 151.28V142.2H123.61V151.28C123.61 152.133 123.85 152.853 124.33 153.44C124.81 154.013 125.55 154.3 126.55 154.3C127.55 154.3 128.283 154.013 128.75 153.44C129.23 152.853 129.47 152.133 129.47 151.28V142.2H132.57V151.28C132.57 152.667 132.29 153.793 131.73 154.66C131.183 155.527 130.45 156.167 129.53 156.58C128.61 156.993 127.617 157.2 126.55 157.2ZM135.446 157V142.2H138.526V157H135.446ZM140.716 160.62L147.676 140.42H150.416L143.456 160.62H140.716ZM158.387 157.2C157.307 157.2 156.307 156.993 155.387 156.58C154.48 156.167 153.747 155.527 153.187 154.66C152.64 153.793 152.367 152.667 152.367 151.28V142.2H155.447V151.28C155.447 152.133 155.687 152.853 156.167 153.44C156.647 154.013 157.387 154.3 158.387 154.3C159.387 154.3 160.12 154.013 160.587 153.44C161.067 152.853 161.307 152.133 161.307 151.28V142.2H164.407V151.28C164.407 152.667 164.127 153.793 163.567 154.66C163.02 155.527 162.287 156.167 161.367 156.58C160.447 156.993 159.453 157.2 158.387 157.2ZM166.902 157L171.462 149.6L166.922 142.2H170.582L173.602 147.32L176.642 142.2H180.322L175.702 149.6L180.322 157H176.642L173.602 151.86L170.582 157H166.902Z" fill="black"/>
</svg>
