<svg width="300" height="300" viewBox="0 0 300 300" fill="none" xmlns="http://www.w3.org/2000/svg">
<path d="M0.25 100C0.25 44.7715 45.0215 0 100.25 0H300V200C300 255.228 255.228 300 200 300H0.25V100Z" fill="#FFAF00"/>
<path d="M124.98 157L119.94 142.2H123.18L127.04 153.98L130.88 142.2H134.12L129.08 157H124.98ZM137.592 144.96C137.059 144.96 136.626 144.793 136.292 144.46C135.959 144.113 135.792 143.707 135.792 143.24C135.792 142.747 135.959 142.333 136.292 142C136.626 141.653 137.059 141.48 137.592 141.48C138.099 141.48 138.526 141.653 138.872 142C139.219 142.333 139.392 142.747 139.392 143.24C139.392 143.707 139.219 144.113 138.872 144.46C138.526 144.793 138.099 144.96 137.592 144.96ZM136.072 157V146.4H139.112V157H136.072ZM146.38 157.2C145.594 157.2 144.907 157.047 144.32 156.74C143.747 156.42 143.267 156 142.88 155.48C142.494 154.947 142.2 154.353 142 153.7C141.814 153.047 141.72 152.38 141.72 151.7C141.72 151.02 141.814 150.353 142 149.7C142.2 149.047 142.494 148.46 142.88 147.94C143.267 147.407 143.747 146.987 144.32 146.68C144.907 146.36 145.594 146.2 146.38 146.2C147.06 146.2 147.62 146.313 148.06 146.54C148.5 146.753 148.834 146.987 149.06 147.24C149.3 147.493 149.447 147.667 149.5 147.76H149.66V141.8H152.7V157H149.66V155.64H149.5C149.447 155.733 149.3 155.907 149.06 156.16C148.834 156.413 148.5 156.653 148.06 156.88C147.62 157.093 147.06 157.2 146.38 157.2ZM147.26 154.74C147.807 154.74 148.26 154.593 148.62 154.3C148.994 153.993 149.267 153.607 149.44 153.14C149.627 152.673 149.72 152.193 149.72 151.7C149.72 151.207 149.627 150.727 149.44 150.26C149.267 149.793 148.994 149.413 148.62 149.12C148.26 148.813 147.807 148.66 147.26 148.66C146.714 148.66 146.254 148.813 145.88 149.12C145.52 149.413 145.247 149.793 145.06 150.26C144.887 150.727 144.8 151.207 144.8 151.7C144.8 152.193 144.887 152.673 145.06 153.14C145.247 153.607 145.52 153.993 145.88 154.3C146.254 154.593 146.714 154.74 147.26 154.74ZM160.533 157.2C159.599 157.2 158.793 157.047 158.113 156.74C157.433 156.42 156.873 156 156.433 155.48C155.993 154.947 155.659 154.353 155.433 153.7C155.219 153.047 155.113 152.373 155.113 151.68C155.113 151.013 155.213 150.36 155.413 149.72C155.626 149.067 155.946 148.473 156.373 147.94C156.813 147.407 157.366 146.987 158.033 146.68C158.713 146.36 159.513 146.2 160.433 146.2C161.406 146.2 162.266 146.413 163.013 146.84C163.773 147.267 164.366 147.9 164.793 148.74C165.219 149.567 165.433 150.573 165.433 151.76V152.5H158.173C158.213 153.14 158.433 153.693 158.833 154.16C159.246 154.627 159.813 154.86 160.533 154.86C160.946 154.86 161.279 154.8 161.533 154.68C161.799 154.547 162.006 154.4 162.153 154.24C162.299 154.067 162.399 153.913 162.453 153.78C162.506 153.647 162.533 153.58 162.533 153.58H165.333C165.333 153.58 165.299 153.707 165.233 153.96C165.179 154.2 165.059 154.5 164.873 154.86C164.686 155.22 164.413 155.58 164.053 155.94C163.706 156.3 163.246 156.6 162.673 156.84C162.099 157.08 161.386 157.2 160.533 157.2ZM158.173 150.66H162.513C162.473 149.927 162.253 149.38 161.853 149.02C161.453 148.66 160.959 148.48 160.373 148.48C159.786 148.48 159.286 148.673 158.873 149.06C158.459 149.433 158.226 149.967 158.173 150.66ZM173.088 157.2C171.902 157.2 170.895 156.947 170.068 156.44C169.242 155.92 168.608 155.247 168.168 154.42C167.742 153.58 167.528 152.673 167.528 151.7C167.528 150.727 167.742 149.827 168.168 149C168.608 148.16 169.242 147.487 170.068 146.98C170.895 146.46 171.902 146.2 173.088 146.2C174.275 146.2 175.282 146.46 176.108 146.98C176.935 147.487 177.562 148.16 177.988 149C178.428 149.827 178.648 150.727 178.648 151.7C178.648 152.673 178.428 153.58 177.988 154.42C177.562 155.247 176.935 155.92 176.108 156.44C175.282 156.947 174.275 157.2 173.088 157.2ZM173.088 154.72C173.622 154.72 174.068 154.58 174.428 154.3C174.802 154.02 175.088 153.653 175.288 153.2C175.488 152.733 175.588 152.233 175.588 151.7C175.588 151.153 175.488 150.653 175.288 150.2C175.088 149.747 174.802 149.38 174.428 149.1C174.068 148.82 173.622 148.68 173.088 148.68C172.555 148.68 172.102 148.82 171.728 149.1C171.355 149.38 171.068 149.747 170.868 150.2C170.682 150.653 170.588 151.153 170.588 151.7C170.588 152.233 170.682 152.733 170.868 153.2C171.068 153.653 171.355 154.02 171.728 154.3C172.102 154.58 172.555 154.72 173.088 154.72Z" fill="white"/>
</svg>
