<svg width="269" height="271" viewBox="0 0 269 271" fill="none" xmlns="http://www.w3.org/2000/svg">
<path d="M133 0.5H0V136.5L133 0.5Z" fill="#013299"/>
<path d="M269 136.5L269 0.5L133 0.499994L269 136.5Z" fill="#013299"/>
<path d="M133 270.5L269 270.5L269 136.5L133 270.5Z" fill="#013299"/>
<path d="M-5.85733e-06 136.5L0 270.5L133 270.5L-5.85733e-06 136.5Z" fill="#013299"/>
<g clip-path="url(#clip0_2368_619)">
<path d="M173.218 162.272H112.937V147.6H183.677L173.218 162.272Z" fill="#3E96C6"/>
<path d="M199.005 126.097H112.937V110.16H210.365L199.005 126.097Z" fill="#F9B253"/>
<path d="M91.0359 171.044C110.138 171.044 125.623 155.578 125.623 136.499C125.623 117.421 110.138 101.955 91.0359 101.955C71.9342 101.955 56.4492 117.421 56.4492 136.499C56.4492 155.578 71.9342 171.044 91.0359 171.044Z" fill="#384556"/>
<path d="M91.0357 166.518C107.635 166.518 121.091 153.078 121.091 136.499C121.091 119.92 107.635 106.48 91.0357 106.48C74.4367 106.48 60.9805 119.92 60.9805 136.499C60.9805 153.078 74.4367 166.518 91.0357 166.518Z" fill="white"/>
<path d="M195.187 148.39H90.9868L108.209 124.042H212.542L206.99 131.832H186.04V140.489H200.818L195.187 148.39Z" fill="white"/>
<path d="M89.3403 118.141C96.8671 118.141 102.641 119.837 106.664 123.226C110.501 126.543 112.42 131.051 112.42 136.748V136.856C112.42 142.662 110.463 147.259 106.553 150.649C102.383 154.219 96.4986 156.003 88.8967 156.003H74.5083V118.141H89.3419H89.3403ZM87.4586 144.971H89.6175C96.1105 144.971 99.3587 142.357 99.3587 137.128V137.02C99.3587 131.792 96.1122 129.177 89.6175 129.177H87.4586V144.971Z" fill="#404E63"/>
<path d="M128.589 130.496V134.014H122.058V135.315H128.144V138.411H122.058V139.804H128.678V143.321H117.965V130.498H128.589V130.496Z" fill="#404E63"/>
<path d="M133.588 138.667C134.845 139.668 136.298 140.168 137.948 140.168C138.661 140.168 139.016 139.986 139.016 139.618V139.582C139.016 139.251 138.441 138.971 137.29 138.74C135.617 138.398 134.395 137.976 133.624 137.476C132.567 136.792 132.041 135.839 132.041 134.618V134.581C132.041 133.31 132.491 132.284 133.392 131.502C134.364 130.672 135.675 130.257 137.325 130.257C139.626 130.257 141.501 130.843 142.948 132.016L140.919 134.91C139.793 134.068 138.547 133.646 137.182 133.646C136.577 133.646 136.274 133.823 136.274 134.177V134.213C136.274 134.541 136.825 134.817 137.929 135.037C139.708 135.366 140.996 135.805 141.79 136.356C142.762 137.028 143.249 137.968 143.249 139.177V139.212C143.249 140.556 142.75 141.619 141.754 142.4C140.781 143.168 139.447 143.554 137.751 143.554C135.082 143.554 132.952 142.834 131.362 141.393L133.586 138.664L133.588 138.667Z" fill="#404E63"/>
<path d="M150.528 130.496V143.32H146.364V130.496H150.528Z" fill="#404E63"/>
<path d="M155.085 141.763C153.72 140.506 153.038 138.898 153.038 136.944V136.906C153.038 134.989 153.69 133.395 154.995 132.125C156.299 130.854 157.936 130.219 159.906 130.219C161.876 130.219 163.684 130.867 165.119 132.161L162.787 135.055C161.944 134.31 161.026 133.937 160.028 133.937C159.221 133.937 158.551 134.224 158.018 134.799C157.496 135.374 157.235 136.094 157.235 136.96V136.998C157.235 137.901 157.514 138.641 158.072 139.214C158.616 139.776 159.329 140.056 160.206 140.056C160.823 140.056 161.297 139.958 161.63 139.763V138.48H159.494V135.732H165.527V141.668C163.997 142.95 162.165 143.592 160.028 143.592C158.036 143.592 156.386 142.981 155.081 141.76L155.085 141.763Z" fill="#404E63"/>
<path d="M172.576 130.496L177.006 136.157V130.496H181.135V143.32H177.433L172.807 137.403V143.32H168.679V130.496H172.576Z" fill="#404E63"/>
</g>
<defs>
<clipPath id="clip0_2368_619">
<rect width="156.093" height="69.0909" fill="white" transform="translate(56.4492 101.955)"/>
</clipPath>
</defs>
</svg>
