<svg width="358" height="350" viewBox="0 0 358 350" fill="none" xmlns="http://www.w3.org/2000/svg">
<path d="M-3.92099e-06 262.688L0 349.123L93.2728 349.123L-3.92099e-06 262.688Z" fill="#FD4F4F"/>
<path fill-rule="evenodd" clip-rule="evenodd" d="M233.182 349.124H279V306.532V263.941C279 258.348 277.815 252.809 275.512 247.642C273.21 242.474 269.835 237.779 265.58 233.824C261.325 229.869 256.274 226.732 250.716 224.591C245.157 222.451 239.199 221.349 233.182 221.349C227.165 221.349 221.207 222.451 215.648 224.591C210.089 226.732 205.038 229.869 200.783 233.824C196.529 237.779 193.154 242.474 190.851 247.642C188.549 252.809 187.363 258.348 187.363 263.941V306.532V349.124H233.182Z" fill="#FD4F4F"/>
<path d="M121.749 265.977C127.507 263.806 133.677 262.688 139.909 262.688C146.141 262.688 152.312 263.806 158.069 265.978C163.827 268.149 169.058 271.333 173.465 275.346C177.871 279.359 181.367 284.123 183.751 289.367C186.136 294.61 187.364 300.23 187.364 305.905C187.364 311.581 186.136 317.201 183.751 322.444C181.367 327.688 177.871 332.452 173.465 336.465C169.058 340.478 163.827 343.662 158.069 345.833C152.312 348.005 146.141 349.123 139.909 349.123L92.4546 349.123L92.4546 305.905C92.4546 300.23 93.6821 294.61 96.0669 289.367C98.4516 284.123 101.947 279.359 106.354 275.346C110.76 271.333 115.992 268.149 121.749 265.977Z" fill="#2653B1"/>
<path d="M172.716 219.719C169.838 220.795 166.752 221.349 163.636 221.349C160.52 221.349 157.435 220.795 154.556 219.719C151.677 218.642 149.062 217.064 146.859 215.075C144.655 213.086 142.907 210.725 141.715 208.126C140.523 205.527 139.909 202.741 139.909 199.928C139.909 197.115 140.523 194.33 141.715 191.731C142.907 189.132 144.655 186.77 146.859 184.781C149.062 182.792 151.677 181.214 154.556 180.138C157.435 179.061 160.52 178.507 163.636 178.507L187.364 178.507L187.364 199.928C187.364 202.741 186.75 205.527 185.557 208.126C184.365 210.725 182.617 213.086 180.414 215.075C178.211 217.064 175.595 218.642 172.716 219.719Z" fill="#2653B1"/>
<path d="M201.698 135.85C204.676 134.736 207.868 134.162 211.091 134.162C214.314 134.162 217.506 134.736 220.484 135.85C223.462 136.964 226.168 138.598 228.447 140.657C230.727 142.715 232.535 145.16 233.768 147.85C235.002 150.54 235.636 153.423 235.636 156.335C235.636 159.247 235.002 162.13 233.768 164.82C232.535 167.51 230.727 169.954 228.447 172.013C226.168 174.072 223.462 175.705 220.484 176.82C217.506 177.934 214.314 178.507 211.091 178.507L186.546 178.507L186.546 156.335C186.546 153.423 187.18 150.54 188.414 147.85C189.647 145.16 191.455 142.715 193.735 140.657C196.014 138.598 198.72 136.964 201.698 135.85Z" fill="#2653B1"/>
<path d="M141.715 164.82C140.523 162.13 139.909 159.246 139.909 156.335C139.909 153.423 140.523 150.54 141.715 147.85C142.908 145.16 144.655 142.715 146.859 140.656C149.062 138.597 151.678 136.964 154.556 135.85C157.435 134.736 160.52 134.162 163.636 134.162C166.752 134.162 169.838 134.736 172.716 135.85C175.595 136.964 178.211 138.597 180.414 140.656C182.617 142.715 184.365 145.16 185.557 147.85C186.75 150.54 187.364 153.423 187.364 156.335L187.364 178.507L163.636 178.507C160.52 178.507 157.435 177.934 154.556 176.82C151.678 175.705 149.062 174.072 146.859 172.013C144.655 169.954 142.908 167.51 141.715 164.82Z" fill="#2653B1"/>
<circle cx="66" cy="285" r="29" fill="#03C9A5"/>
<path fill-rule="evenodd" clip-rule="evenodd" d="M190.851 194.902C188.549 189.704 187.363 184.133 187.363 178.507L233.182 178.507L279 178.507C279 184.133 277.815 189.704 275.512 194.902C273.21 200.1 269.835 204.823 265.58 208.801C261.325 212.779 256.274 215.935 250.716 218.088C245.157 220.241 239.199 221.349 233.182 221.349C227.165 221.349 221.207 220.241 215.648 218.088C210.089 215.935 205.038 212.779 200.783 208.801C196.529 204.823 193.154 200.1 190.851 194.902Z" fill="#03C9A5"/>
<path fill-rule="evenodd" clip-rule="evenodd" d="M261.153 98.2824C266.811 96.1671 272.876 95.0784 279 95.0784L279 137.169L279 179.259C272.876 179.259 266.811 178.17 261.153 176.055C255.495 173.94 250.354 170.84 246.023 166.931C241.693 163.023 238.257 158.383 235.914 153.276C233.57 148.169 232.364 142.696 232.364 137.169C232.364 131.641 233.57 126.168 235.914 121.061C238.257 115.955 241.693 111.315 246.023 107.406C250.354 103.498 255.495 100.398 261.153 98.2824Z" fill="#FD4F4F"/>
<rect x="91.8142" y="222.266" width="96.5299" height="40.3073" fill="#FFAF00"/>
<path d="M279 78L358 78L358 -7.62939e-06L279 78Z" fill="#03C9A5"/>
<rect x="279" y="158" width="79" height="112" fill="#FFAF00"/>
<circle cx="318.5" cy="309.5" r="39.5" fill="#2653B1"/>
<path d="M282.007 132.616C280.022 127.824 279 122.687 279 117.5C279 112.313 280.022 107.176 282.007 102.384C283.992 97.5917 286.901 93.2372 290.569 89.5693C294.237 85.9014 298.592 82.9918 303.384 81.0068C308.176 79.0217 313.313 78 318.5 78C323.687 78 328.824 79.0217 333.616 81.0068C338.408 82.9918 342.763 85.9014 346.431 89.5693C350.099 93.2372 353.008 97.5917 354.993 102.384C356.978 107.176 358 112.313 358 117.5L358 157L318.5 157C313.313 157 308.176 155.978 303.384 153.993C298.592 152.008 294.237 149.099 290.569 145.431C286.901 141.763 283.992 137.408 282.007 132.616Z" fill="#2653B1"/>
</svg>
