<svg width="358" height="55" viewBox="0 0 358 55" fill="none" xmlns="http://www.w3.org/2000/svg">
<path d="M38.0238 2.09331C34.6873 0.711307 31.1113 -1.04421e-06 27.5 -1.20206e-06C23.8887 -1.35992e-06 20.3127 0.711306 16.9762 2.09331C13.6398 3.47532 10.6082 5.50095 8.05456 8.05456C5.50094 10.6082 3.4753 13.6397 2.09332 16.9762C0.711341 20.3127 2.77049e-06 23.8886 2.61263e-06 27.5C2.45478e-06 31.1113 0.71134 34.6873 2.09332 38.0238C3.4753 41.3602 5.50094 44.3918 8.05456 46.9454C10.6082 49.499 13.6398 51.5247 16.9762 52.9067C20.3127 54.2887 23.8887 55 27.5 55L55 55L55 27.5C55 23.8886 54.2887 20.3127 52.9067 16.9762C51.5247 13.6398 49.4991 10.6082 46.9454 8.05456C44.3918 5.50095 41.3602 3.47532 38.0238 2.09331Z" fill="#FD4F4F"/>
<path d="M81 55L55 27.397L80.806 0L81 55Z" fill="#2653B1"/>
<path d="M109 55L81 27.397L108.791 0L109 55Z" fill="#2653B1"/>
<ellipse cx="28" cy="27.5" rx="28" ry="27.5" transform="matrix(1 0 0 -1 109 55)" fill="#FFAF00"/>
<rect width="84" height="55" transform="matrix(1 0 0 -1 165 55)" fill="#FD4F4F"/>
<path fill-rule="evenodd" clip-rule="evenodd" d="M253.149 21.0476C250.41 14.3747 249 7.2227 249 -1.98711e-06L303.5 2.82114e-06L358 0C358 7.2227 356.59 14.3747 353.851 21.0476C351.113 27.7205 347.098 33.7836 342.037 38.8909C336.977 43.9981 330.968 48.0494 324.356 50.8134C317.744 53.5774 310.657 55 303.5 55C296.343 55 289.256 53.5774 282.644 50.8134C276.032 48.0494 270.023 43.9981 264.963 38.8909C259.902 33.7836 255.887 27.7205 253.149 21.0476Z" fill="#03C9A5"/>
</svg>
