<svg width="358" height="55" viewBox="0 0 358 55" fill="none" xmlns="http://www.w3.org/2000/svg">
<path fill-rule="evenodd" clip-rule="evenodd" d="M104.851 33.9524C107.59 40.6253 109 47.7773 109 55L54.5 55L-4.76454e-06 55C-4.13885e-06 47.7773 1.40968 40.6253 4.14856 33.9524C6.88744 27.2795 10.9019 21.2164 15.9627 16.1091C21.0235 11.0019 27.0315 6.95064 33.6438 4.18664C40.256 1.42263 47.343 1.37803e-05 54.5 4.80825e-06C61.657 5.12976e-06 68.744 1.42262 75.3562 4.18663C81.9685 6.95064 87.9765 11.0019 93.0373 16.1091C98.0981 21.2164 102.113 27.2795 104.851 33.9524Z" fill="#03C9A5"/>
<rect width="84" height="55" transform="matrix(-1 0 0 1 193 0)" fill="#FD4F4F"/>
<ellipse cx="28" cy="27.5" rx="28" ry="27.5" transform="matrix(-1 0 0 1 249 0)" fill="#FFAF00"/>
<path d="M249 0L277 27.603L249.209 55L249 0Z" fill="#2653B1"/>
<path d="M277 0L303 27.603L277.194 55L277 0Z" fill="#2653B1"/>
<path d="M319.976 52.9067C323.313 54.2887 326.889 55 330.5 55C334.111 55 337.687 54.2887 341.024 52.9067C344.36 51.5247 347.392 49.4991 349.945 46.9454C352.499 44.3918 354.525 41.3603 355.907 38.0238C357.289 34.6873 358 31.1114 358 27.5C358 23.8887 357.289 20.3127 355.907 16.9762C354.525 13.6398 352.499 10.6082 349.945 8.05457C347.392 5.50096 344.36 3.47533 341.024 2.09332C337.687 0.711317 334.111 5.17462e-06 330.5 5.01676e-06L303 3.8147e-06L303 27.5C303 31.1114 303.711 34.6873 305.093 38.0238C306.475 41.3602 308.501 44.3918 311.055 46.9454C313.608 49.499 316.64 51.5247 319.976 52.9067Z" fill="#FD4F4F"/>
</svg>
